<?xml version="1.0" encoding="UTF-8"?>
<svg xmlns="http://www.w3.org/2000/svg" version="1.1" viewBox="0 0 712.4 77.1">
  <defs>
    <style>
      .cls-1 {
        fill: #fc0;
      }

      .cls-2 {
        fill: #048d3e;
      }

      .cls-3 {
        fill: #666;
      }
    </style>
  </defs>
  <!-- Generator: Adobe Illustrator 28.7.1, SVG Export Plug-In . SVG Version: 1.2.0 Build 142)  -->
  <g>
    <g id="Camada_1">
      <g>
        <path class="cls-2" d="M1.6,75.9V1.2h22c6.6,0,12.4,1.5,17.6,4.4,5.1,2.9,9.1,7.1,11.9,12.5,2.8,5.4,4.2,11.6,4.2,18.6v3.7c0,7.1-1.4,13.3-4.2,18.7-2.8,5.4-6.8,9.5-12,12.4-5.2,2.9-11.2,4.4-17.9,4.4H1.6ZM14.6,11.7v53.8h8.5c6.8,0,12-2.1,15.7-6.4,3.6-4.3,5.5-10.4,5.6-18.3v-4.2c0-8.1-1.8-14.3-5.3-18.6-3.5-4.3-8.6-6.4-15.3-6.4h-9.1Z"/>
        <path class="cls-2" d="M78.9,75.9h-12.9V1.2h12.9v74.6Z"/>
        <path class="cls-2" d="M117.2,47.1h-14.5v28.7h-13V1.2h26.2c8.6,0,15.3,1.9,19.9,5.8,4.7,3.9,7,9.5,7,16.8s-1.2,9.2-3.6,12.5c-2.4,3.4-5.8,6-10.1,7.8l16.8,31.1v.7h-13.9l-15-28.7ZM102.7,36.7h13.3c4.4,0,7.8-1.1,10.3-3.3,2.5-2.2,3.7-5.2,3.7-9s-1.1-7.1-3.4-9.3c-2.3-2.2-5.7-3.3-10.2-3.4h-13.7v25Z"/>
        <path class="cls-2" d="M180.8,1.2h12.9v52.3c0,7.1-2.2,12.8-6.7,17-4.5,4.2-10.3,6.3-17.7,6.3s-13.8-2-18-5.9c-4.2-3.9-6.4-9.4-6.4-16.4h12.9c0,4,1,6.9,2.9,8.9,2,2,4.8,3,8.5,3s6.3-1.2,8.3-3.5c2.1-2.3,3.1-5.5,3.1-9.6V1.2Z"/>
        <path class="cls-2" d="M258.1,1.2v49.9c0,7.9-2.5,14.2-7.6,18.8-5.1,4.6-11.8,6.9-20.3,6.9s-15.3-2.3-20.4-6.8c-5-4.6-7.5-10.9-7.5-19V1.2h12.9v49.9c0,5,1.3,8.8,3.8,11.4,2.5,2.6,6.3,3.9,11.2,3.9,10,0,15-5.3,15-15.8V1.2h12.9Z"/>
        <path class="cls-2" d="M305.9,56.6c0-3.3-1.2-5.8-3.5-7.6-2.3-1.8-6.5-3.6-12.5-5.4-6-1.8-10.8-3.8-14.4-6-6.8-4.3-10.2-9.8-10.2-16.7s2.5-11,7.4-14.9c4.9-3.9,11.3-5.8,19.1-5.8s9.8,1,13.9,2.9c4.1,1.9,7.3,4.6,9.6,8.2,2.3,3.5,3.5,7.5,3.5,11.8h-12.9c0-3.9-1.2-6.9-3.7-9.2-2.4-2.2-5.9-3.3-10.5-3.3s-7.5.9-9.9,2.7c-2.3,1.8-3.5,4.3-3.5,7.6s1.3,5,3.8,6.8c2.5,1.8,6.7,3.6,12.5,5.3,5.8,1.7,10.5,3.7,14,5.9,3.5,2.2,6.1,4.7,7.7,7.6,1.6,2.9,2.5,6.2,2.5,10,0,6.2-2.4,11.2-7.2,14.8-4.8,3.7-11.2,5.5-19.4,5.5s-10.4-1-14.9-3c-4.5-2-8-4.8-10.6-8.3-2.5-3.5-3.8-7.6-3.8-12.3h13c0,4.2,1.4,7.5,4.2,9.8,2.8,2.3,6.8,3.5,12,3.5s7.9-.9,10.2-2.7c2.3-1.8,3.4-4.2,3.4-7.3Z"/>
        <path class="cls-2" d="M338.2,48.2v27.7h-13V1.2h28.6c8.3,0,15,2.2,19.9,6.5,4.9,4.3,7.4,10.1,7.4,17.2s-2.4,13-7.2,17.1c-4.8,4.1-11.5,6.1-20.2,6.1h-15.4ZM338.2,37.7h15.6c4.6,0,8.1-1.1,10.6-3.3,2.4-2.2,3.6-5.3,3.6-9.4s-1.2-7.3-3.7-9.7c-2.5-2.4-5.8-3.6-10.2-3.7h-15.9v26Z"/>
      </g>
      <rect class="cls-1" x="398.6" y="1.1" width="5.9" height="75.4"/>
      <g>
        <path class="cls-3" d="M420.6,17.6V2h4.4c1.4,0,2.6.3,3.6.9s1.9,1.5,2.4,2.6c.6,1.1.9,2.4.9,3.8v1c0,1.5-.3,2.8-.9,3.9-.6,1.1-1.4,2-2.4,2.6-1.1.6-2.3.9-3.7.9h-4.3ZM422.7,3.7v12.3h2.2c1.6,0,2.8-.5,3.7-1.5.9-1,1.3-2.4,1.3-4.2v-.9c0-1.8-.4-3.2-1.3-4.1-.8-1-2-1.5-3.5-1.5h-2.4Z"/>
        <path class="cls-3" d="M437.3,17.6h-2.1V2h2.1v15.6Z"/>
        <path class="cls-3" d="M446.8,11.3h-3.7v6.3h-2.1V2h5.2c1.8,0,3.1.4,4.1,1.2.9.8,1.4,2,1.4,3.5s-.3,1.8-.8,2.5c-.5.7-1.3,1.3-2.2,1.6l3.7,6.6h0c0,.1-2.2.1-2.2.1l-3.4-6.3ZM443.1,9.6h3.2c1,0,1.8-.3,2.4-.8.6-.5.9-1.2.9-2.1s-.3-1.7-.9-2.2c-.6-.5-1.4-.8-2.5-.8h-3.2v5.9Z"/>
        <path class="cls-3" d="M463.4,10.4h-6.8v5.5h7.9v1.7h-9.9V2h9.8v1.7h-7.8v5h6.8v1.7Z"/>
        <path class="cls-3" d="M478.1,3.7h-5v14h-2.1V3.7h-5v-1.7h12.1v1.7Z"/>
        <path class="cls-3" d="M492.2,10.3c0,1.5-.3,2.9-.8,4-.5,1.1-1.2,2-2.2,2.6s-2,.9-3.3.9-2.3-.3-3.3-.9c-1-.6-1.7-1.5-2.2-2.6-.5-1.1-.8-2.4-.8-3.9v-1.1c0-1.5.3-2.8.8-4,.5-1.2,1.3-2,2.2-2.6,1-.6,2.1-.9,3.3-.9s2.4.3,3.3.9c1,.6,1.7,1.5,2.2,2.6s.8,2.5.8,4v1ZM490.1,9.3c0-1.9-.4-3.3-1.1-4.3-.7-1-1.8-1.5-3.1-1.5s-2.3.5-3.1,1.5c-.7,1-1.1,2.4-1.2,4.1v1.1c0,1.8.4,3.2,1.1,4.2.8,1,1.8,1.5,3.1,1.5s2.4-.5,3.1-1.5c.7-1,1.1-2.4,1.1-4.2v-1.2Z"/>
        <path class="cls-3" d="M501,11.3h-3.7v6.3h-2.1V2h5.2c1.8,0,3.1.4,4.1,1.2.9.8,1.4,2,1.4,3.5s-.3,1.8-.8,2.5c-.5.7-1.3,1.3-2.2,1.6l3.7,6.6h0c0,.1-2.2.1-2.2.1l-3.4-6.3ZM497.3,9.6h3.2c1,0,1.8-.3,2.4-.8.6-.5.9-1.2.9-2.1s-.3-1.7-.9-2.2c-.6-.5-1.4-.8-2.5-.8h-3.2v5.9Z"/>
        <path class="cls-3" d="M511,17.6h-2.1V2h2.1v15.6Z"/>
        <path class="cls-3" d="M523.4,13.5h-6.6l-1.5,4.1h-2.1l6-15.6h1.8l6,15.6h-2.1l-1.5-4.1ZM517.5,11.8h5.3l-2.7-7.3-2.7,7.3Z"/>
        <path class="cls-3" d="M534.6,17.6V2h4.4c1.4,0,2.6.3,3.6.9s1.9,1.5,2.4,2.6c.6,1.1.9,2.4.9,3.8v1c0,1.5-.3,2.8-.9,3.9-.6,1.1-1.4,2-2.4,2.6-1.1.6-2.3.9-3.7.9h-4.3ZM536.6,3.7v12.3h2.2c1.6,0,2.8-.5,3.7-1.5.9-1,1.3-2.4,1.3-4.2v-.9c0-1.8-.4-3.2-1.3-4.1-.8-1-2-1.5-3.5-1.5h-2.4Z"/>
        <path class="cls-3" d="M561,10.3c0,1.5-.3,2.9-.8,4-.5,1.1-1.2,2-2.2,2.6s-2,.9-3.3.9-2.3-.3-3.3-.9c-1-.6-1.7-1.5-2.2-2.6-.5-1.1-.8-2.4-.8-3.9v-1.1c0-1.5.3-2.8.8-4,.5-1.2,1.3-2,2.2-2.6,1-.6,2.1-.9,3.3-.9s2.4.3,3.3.9c1,.6,1.7,1.5,2.2,2.6s.8,2.5.8,4v1ZM559,9.3c0-1.9-.4-3.3-1.1-4.3-.7-1-1.8-1.5-3.1-1.5s-2.3.5-3.1,1.5c-.7,1-1.1,2.4-1.2,4.1v1.1c0,1.8.4,3.2,1.1,4.2.8,1,1.8,1.5,3.1,1.5s2.4-.5,3.1-1.5c.7-1,1.1-2.4,1.1-4.2v-1.2Z"/>
        <path class="cls-3" d="M432.7,36.7c0,1.5-.3,2.9-.8,4-.5,1.1-1.2,2-2.2,2.6s-2,.9-3.3.9-2.3-.3-3.3-.9c-1-.6-1.7-1.5-2.2-2.6-.5-1.1-.8-2.4-.8-3.9v-1.1c0-1.5.3-2.8.8-4,.5-1.2,1.3-2,2.2-2.6,1-.6,2.1-.9,3.3-.9s2.4.3,3.3.9c1,.6,1.7,1.5,2.2,2.6s.8,2.5.8,4v1ZM430.6,35.7c0-1.9-.4-3.3-1.1-4.3-.7-1-1.8-1.5-3.1-1.5s-2.3.5-3.1,1.5c-.7,1-1.1,2.4-1.2,4.1v1.1c0,1.8.4,3.2,1.1,4.2.8,1,1.8,1.5,3.1,1.5s2.4-.5,3.1-1.5c.7-1,1.1-2.4,1.1-4.2v-1.2Z"/>
        <path class="cls-3" d="M435.8,44v-15.6h5.1c1.7,0,3,.4,3.8,1.1.9.7,1.3,1.7,1.3,3.1s-.2,1.4-.6,1.9c-.4.6-1,1-1.7,1.3.8.2,1.5.7,2,1.3.5.7.7,1.5.7,2.4,0,1.4-.5,2.5-1.4,3.3-.9.8-2.2,1.2-3.9,1.2h-5.4ZM437.8,35.1h3.1c.9,0,1.6-.2,2.2-.7.5-.5.8-1.1.8-1.8s-.3-1.5-.8-1.9-1.3-.6-2.3-.6h-3.1v5ZM437.8,36.7v5.6h3.4c1,0,1.7-.2,2.3-.7.6-.5.8-1.2.8-2.1,0-1.9-1-2.8-3.1-2.8h-3.4Z"/>
        <path class="cls-3" d="M454.1,37.1c-1.8-.5-3.1-1.1-3.9-1.9-.8-.7-1.2-1.7-1.2-2.7s.5-2.3,1.5-3.1c1-.8,2.3-1.2,3.8-1.2s2,.2,2.9.6c.8.4,1.5,1,2,1.7.5.7.7,1.5.7,2.4h-2.1c0-.9-.3-1.7-.9-2.2s-1.5-.8-2.5-.8-1.8.2-2.4.7c-.6.4-.9,1.1-.9,1.9s.3,1.2.8,1.6c.5.4,1.5.8,2.8,1.2,1.3.4,2.3.8,3.1,1.2.7.4,1.3,1,1.6,1.5.4.6.5,1.3.5,2.1,0,1.3-.5,2.3-1.5,3s-2.3,1.1-4,1.1-2.1-.2-3-.6-1.6-1-2.2-1.7c-.5-.7-.8-1.5-.8-2.4h2.1c0,.9.3,1.7,1,2.2.7.5,1.6.8,2.8.8s1.9-.2,2.5-.7c.6-.4.9-1,.9-1.8s-.3-1.4-.8-1.8-1.5-.8-2.9-1.2Z"/>
        <path class="cls-3" d="M471.3,36.8h-6.8v5.5h7.9v1.7h-9.9v-15.6h9.8v1.7h-7.8v5h6.8v1.7Z"/>
        <path class="cls-3" d="M480.7,37.7h-3.7v6.3h-2.1v-15.6h5.2c1.8,0,3.1.4,4.1,1.2.9.8,1.4,2,1.4,3.5s-.3,1.8-.8,2.5c-.5.7-1.3,1.3-2.2,1.6l3.7,6.6h0c0,.1-2.2.1-2.2.1l-3.4-6.3ZM477.1,36h3.2c1,0,1.8-.3,2.4-.8.6-.5.9-1.2.9-2.1s-.3-1.7-.9-2.2c-.6-.5-1.4-.8-2.5-.8h-3.2v5.9Z"/>
        <path class="cls-3" d="M493.5,41.3l4.5-12.9h2.3l-5.8,15.6h-1.8l-5.8-15.6h2.2l4.4,12.9Z"/>
        <path class="cls-3" d="M510.2,39.9h-6.6l-1.5,4.1h-2.1l6-15.6h1.8l6,15.6h-2.1l-1.5-4.1ZM504.2,38.2h5.3l-2.7-7.3-2.7,7.3Z"/>
        <path class="cls-3" d="M525.3,30.1h-5v14h-2.1v-14h-5v-1.7h12.1v1.7Z"/>
        <path class="cls-3" d="M539.7,36.7c0,1.5-.3,2.9-.8,4-.5,1.1-1.2,2-2.2,2.6s-2,.9-3.3.9-2.3-.3-3.3-.9c-1-.6-1.7-1.5-2.2-2.6-.5-1.1-.8-2.4-.8-3.9v-1.1c0-1.5.3-2.8.8-4,.5-1.2,1.3-2,2.2-2.6,1-.6,2.1-.9,3.3-.9s2.4.3,3.3.9c1,.6,1.7,1.5,2.2,2.6s.8,2.5.8,4v1ZM537.6,35.7c0-1.9-.4-3.3-1.1-4.3-.7-1-1.8-1.5-3.1-1.5s-2.3.5-3.1,1.5c-.7,1-1.1,2.4-1.2,4.1v1.1c0,1.8.4,3.2,1.1,4.2.8,1,1.8,1.5,3.1,1.5s2.4-.5,3.1-1.5c.7-1,1.1-2.4,1.1-4.2v-1.2ZM534.4,24.2h2.4l-2.9,3.2h-1.6s2.1-3.2,2.1-3.2Z"/>
        <path class="cls-3" d="M548.5,37.7h-3.7v6.3h-2.1v-15.6h5.2c1.8,0,3.1.4,4.1,1.2.9.8,1.4,2,1.4,3.5s-.3,1.8-.8,2.5c-.5.7-1.3,1.3-2.2,1.6l3.7,6.6h0c0,.1-2.2.1-2.2.1l-3.4-6.3ZM544.8,36h3.2c1,0,1.8-.3,2.4-.8.6-.5.9-1.2.9-2.1s-.3-1.7-.9-2.2c-.6-.5-1.4-.8-2.5-.8h-3.2v5.9Z"/>
        <path class="cls-3" d="M558.5,44h-2.1v-15.6h2.1v15.6Z"/>
        <path class="cls-3" d="M574.3,36.7c0,1.5-.3,2.9-.8,4-.5,1.1-1.2,2-2.2,2.6s-2,.9-3.3.9-2.3-.3-3.3-.9c-1-.6-1.7-1.5-2.2-2.6-.5-1.1-.8-2.4-.8-3.9v-1.1c0-1.5.3-2.8.8-4,.5-1.2,1.3-2,2.2-2.6,1-.6,2.1-.9,3.3-.9s2.4.3,3.3.9c1,.6,1.7,1.5,2.2,2.6s.8,2.5.8,4v1ZM572.3,35.7c0-1.9-.4-3.3-1.1-4.3-.7-1-1.8-1.5-3.1-1.5s-2.3.5-3.1,1.5c-.7,1-1.1,2.4-1.2,4.1v1.1c0,1.8.4,3.2,1.1,4.2.8,1,1.8,1.5,3.1,1.5s2.4-.5,3.1-1.5c.7-1,1.1-2.4,1.1-4.2v-1.2Z"/>
        <path class="cls-3" d="M577.4,44v-15.6h4.4c1.4,0,2.6.3,3.6.9s1.9,1.5,2.4,2.6c.6,1.1.9,2.4.9,3.8v1c0,1.5-.3,2.8-.9,3.9-.6,1.1-1.4,2-2.4,2.6-1.1.6-2.3.9-3.7.9h-4.3ZM579.5,30.1v12.3h2.2c1.6,0,2.8-.5,3.7-1.5.9-1,1.3-2.4,1.3-4.2v-.9c0-1.8-.4-3.2-1.3-4.1-.8-1-2-1.5-3.5-1.5h-2.4Z"/>
        <path class="cls-3" d="M600.7,36.8h-6.8v5.5h7.9v1.7h-9.9v-15.6h9.8v1.7h-7.8v5h6.8v1.7Z"/>
        <path class="cls-3" d="M616.3,28.4h2.1v11.1c0,1.5-.4,2.7-1.3,3.5-.9.8-2.1,1.3-3.6,1.3s-2.8-.4-3.6-1.2-1.3-1.9-1.3-3.3h2.1c0,.9.2,1.6.7,2.1.5.5,1.2.8,2.1.8s1.5-.3,2.1-.8c.5-.5.8-1.3.8-2.3v-11.1Z"/>
        <path class="cls-3" d="M632.9,28.4v10.6c0,1.5-.5,2.7-1.4,3.6-.9.9-2.2,1.5-3.7,1.6h-.5c-1.7,0-3.1-.4-4.1-1.4s-1.5-2.2-1.5-3.8v-10.7h2v10.6c0,1.1.3,2,.9,2.6.6.6,1.5.9,2.7.9s2.1-.3,2.7-.9c.6-.6.9-1.5.9-2.6v-10.6h2.1Z"/>
        <path class="cls-3" d="M640.8,37.1c-1.8-.5-3.1-1.1-3.9-1.9-.8-.7-1.2-1.7-1.2-2.7s.5-2.3,1.5-3.1c1-.8,2.3-1.2,3.8-1.2s2,.2,2.9.6c.8.4,1.5,1,2,1.7.5.7.7,1.5.7,2.4h-2.1c0-.9-.3-1.7-.9-2.2s-1.5-.8-2.5-.8-1.8.2-2.4.7c-.6.4-.9,1.1-.9,1.9s.3,1.2.8,1.6c.5.4,1.5.8,2.8,1.2,1.3.4,2.3.8,3.1,1.2.7.4,1.3,1,1.6,1.5.4.6.5,1.3.5,2.1,0,1.3-.5,2.3-1.5,3s-2.3,1.1-4,1.1-2.1-.2-3-.6-1.6-1-2.2-1.7c-.5-.7-.8-1.5-.8-2.4h2.1c0,.9.3,1.7,1,2.2.7.5,1.6.8,2.8.8s1.9-.2,2.5-.7c.6-.4.9-1,.9-1.8s-.3-1.4-.8-1.8-1.5-.8-2.9-1.2Z"/>
        <path class="cls-3" d="M660.1,30.1h-5v14h-2.1v-14h-5v-1.7h12.1v1.7Z"/>
        <path class="cls-3" d="M664.6,44h-2.1v-15.6h2.1v15.6Z"/>
        <path class="cls-3" d="M679.9,39.1c-.2,1.7-.8,2.9-1.8,3.8-1,.9-2.4,1.3-4.1,1.3s-3.3-.7-4.4-2c-1.1-1.3-1.7-3.1-1.7-5.3v-1.5c0-1.5.3-2.7.8-3.8.5-1.1,1.3-1.9,2.2-2.5s2.1-.9,3.3-.9,3,.5,4,1.4c1,.9,1.6,2.2,1.8,3.9h-2.1c-.2-1.2-.6-2.2-1.2-2.7-.6-.6-1.4-.8-2.5-.8s-2.4.5-3.1,1.5c-.7,1-1.1,2.4-1.1,4.2v1.5c0,1.7.4,3.1,1.1,4.1s1.7,1.5,3,1.5,2-.3,2.6-.8c.6-.5,1-1.4,1.2-2.7h2.1ZM674.6,44.1v.6c1,.2,1.5.8,1.5,1.9s-.3,1.2-.9,1.6c-.6.4-1.4.6-2.4.6v-1.1c.5,0,.9,0,1.2-.3.3-.2.5-.4.5-.8s-.1-.5-.3-.7-.7-.3-1.4-.3l.3-1.4h1.4Z"/>
        <path class="cls-3" d="M691.3,39.9h-6.6l-1.5,4.1h-2.1l6-15.6h1.8l6,15.6h-2.1l-1.5-4.1ZM685.4,38.2h5.3l-2.7-7.3-2.7,7.3Z"/>
        <path class="cls-3" d="M711.3,36.8h-6.8v5.5h7.9v1.7h-9.9v-15.6h9.8v1.7h-7.8v5h6.8v1.7Z"/>
        <path class="cls-3" d="M425.2,63.5c-1.8-.5-3.1-1.1-3.9-1.9-.8-.7-1.2-1.7-1.2-2.7s.5-2.3,1.5-3.1c1-.8,2.3-1.2,3.8-1.2s2,.2,2.9.6c.8.4,1.5,1,2,1.7.5.7.7,1.5.7,2.4h-2.1c0-.9-.3-1.7-.9-2.2-.6-.5-1.5-.8-2.5-.8s-1.8.2-2.4.7c-.6.4-.9,1.1-.9,1.9s.3,1.2.8,1.6c.5.4,1.5.8,2.8,1.2,1.3.4,2.3.8,3.1,1.2.7.4,1.3,1,1.6,1.5.4.6.5,1.3.5,2.1,0,1.3-.5,2.3-1.5,3s-2.3,1.1-4,1.1-2.1-.2-3-.6c-.9-.4-1.6-1-2.2-1.7-.5-.7-.8-1.5-.8-2.4h2.1c0,.9.3,1.7,1,2.2.7.5,1.6.8,2.8.8s1.9-.2,2.5-.7.9-1,.9-1.8-.3-1.4-.8-1.8-1.5-.8-2.9-1.2Z"/>
        <path class="cls-3" d="M442.5,63.2h-6.8v5.5h7.9v1.7h-9.9v-15.6h9.8v1.7h-7.8v5h6.8v1.7Z"/>
        <path class="cls-3" d="M457.7,68.4c-.5.8-1.3,1.3-2.2,1.7-.9.4-2.1.6-3.3.6s-2.4-.3-3.4-.9c-1-.6-1.8-1.4-2.3-2.6-.5-1.1-.8-2.4-.8-3.8v-1.4c0-2.4.5-4.2,1.6-5.5,1.1-1.3,2.6-1.9,4.6-1.9s2.9.4,3.9,1.3c1,.8,1.6,2,1.8,3.6h-2.1c-.4-2.1-1.6-3.1-3.7-3.1s-2.4.5-3.1,1.5c-.7,1-1.1,2.4-1.1,4.2v1.3c0,1.8.4,3.2,1.2,4.2s1.9,1.6,3.3,1.6,1.5,0,2-.3c.6-.2,1.1-.5,1.4-.9v-3.5h-3.6v-1.7h5.7v5.7Z"/>
        <path class="cls-3" d="M472.2,54.8v10.6c0,1.5-.5,2.7-1.4,3.6-.9.9-2.2,1.5-3.7,1.6h-.5c-1.7,0-3.1-.4-4.1-1.4s-1.5-2.2-1.5-3.8v-10.7h2v10.6c0,1.1.3,2,.9,2.6.6.6,1.5.9,2.7.9s2.1-.3,2.7-.9c.6-.6.9-1.5.9-2.6v-10.6h2.1Z"/>
        <path class="cls-3" d="M481.2,64.1h-3.7v6.3h-2.1v-15.6h5.2c1.8,0,3.1.4,4.1,1.2.9.8,1.4,2,1.4,3.5s-.3,1.8-.8,2.5c-.5.7-1.3,1.3-2.2,1.6l3.7,6.6h0c0,.1-2.2.1-2.2.1l-3.4-6.3ZM477.5,62.4h3.2c1,0,1.8-.3,2.4-.8.6-.5.9-1.2.9-2.1s-.3-1.7-.9-2.2c-.6-.5-1.4-.8-2.5-.8h-3.2v5.9Z"/>
        <path class="cls-3" d="M497.6,66.3h-6.6l-1.5,4.1h-2.1l6-15.6h1.8l6,15.6h-2.1l-1.5-4.1ZM491.7,64.7h5.3l-2.7-7.3-2.7,7.3Z"/>
        <path class="cls-3" d="M515.4,70.4h-2.1l-7.9-12.1v12.1h-2.1v-15.6h2.1l7.9,12.1v-12.1h2.1v15.6Z"/>
        <path class="cls-3" d="M530.5,65.5c-.2,1.7-.8,2.9-1.8,3.8-1,.9-2.4,1.3-4.1,1.3s-3.3-.7-4.4-2c-1.1-1.3-1.7-3.1-1.7-5.3v-1.5c0-1.5.3-2.7.8-3.8.5-1.1,1.3-2,2.2-2.5s2.1-.9,3.3-.9,3,.5,4,1.4c1,.9,1.6,2.2,1.8,3.9h-2.1c-.2-1.2-.6-2.2-1.2-2.7-.6-.6-1.4-.8-2.5-.8s-2.4.5-3.1,1.5c-.7,1-1.1,2.4-1.1,4.2v1.5c0,1.7.4,3,1.1,4.1.7,1,1.7,1.5,3,1.5s2-.3,2.6-.8c.6-.5,1-1.4,1.2-2.7h2.1ZM525.3,70.5v.6c1,.2,1.5.8,1.5,1.9s-.3,1.2-.9,1.6-1.4.6-2.4.6v-1.1c.5,0,.9,0,1.2-.3.3-.2.5-.4.5-.8s-.1-.5-.3-.7-.7-.3-1.4-.3l.3-1.4h1.4Z"/>
        <path class="cls-3" d="M542,66.3h-6.6l-1.5,4.1h-2.1l6-15.6h1.8l6,15.6h-2.1l-1.5-4.1ZM536,64.7h5.3l-2.7-7.3-2.7,7.3Z"/>
        <path class="cls-3" d="M555.2,64.3v6.1h-2.1v-15.6h5.8c1.7,0,3.1.4,4,1.3,1,.9,1.5,2,1.5,3.5s-.5,2.7-1.4,3.5c-.9.8-2.3,1.2-4.1,1.2h-3.7ZM555.2,62.6h3.7c1.1,0,1.9-.3,2.5-.8s.9-1.3.9-2.3-.3-1.7-.9-2.2-1.4-.8-2.4-.9h-3.8v6.1Z"/>
        <path class="cls-3" d="M578,54.8v10.6c0,1.5-.5,2.7-1.4,3.6-.9.9-2.2,1.5-3.7,1.6h-.5c-1.7,0-3.1-.4-4.1-1.4s-1.5-2.2-1.5-3.8v-10.7h2v10.6c0,1.1.3,2,.9,2.6.6.6,1.5.9,2.7.9s2.1-.3,2.7-.9c.6-.6.9-1.5.9-2.6v-10.6h2.1ZM573.3,50.6h2.4l-2.9,3.2h-1.6s2.1-3.2,2.1-3.2Z"/>
        <path class="cls-3" d="M581.3,70.4v-15.6h5.1c1.7,0,3,.4,3.8,1.1.9.7,1.3,1.7,1.3,3.1s-.2,1.4-.6,1.9c-.4.6-1,1-1.7,1.3.8.2,1.5.7,2,1.3.5.7.7,1.5.7,2.4,0,1.4-.5,2.5-1.4,3.3s-2.2,1.2-3.9,1.2h-5.4ZM583.3,61.5h3.1c.9,0,1.6-.2,2.2-.7.5-.5.8-1.1.8-1.8s-.3-1.5-.8-1.9c-.5-.4-1.3-.6-2.3-.6h-3.1v5ZM583.3,63.1v5.6h3.4c1,0,1.7-.2,2.3-.7.6-.5.8-1.2.8-2.1,0-1.9-1-2.8-3.1-2.8h-3.4Z"/>
        <path class="cls-3" d="M597,68.7h7.4v1.7h-9.5v-15.6h2.1v14Z"/>
        <path class="cls-3" d="M609,70.4h-2.1v-15.6h2.1v15.6Z"/>
        <path class="cls-3" d="M624.3,65.5c-.2,1.7-.8,2.9-1.8,3.8-1,.9-2.4,1.3-4.1,1.3s-3.3-.7-4.4-2c-1.1-1.3-1.7-3.1-1.7-5.3v-1.5c0-1.5.3-2.7.8-3.8.5-1.1,1.3-2,2.2-2.5s2.1-.9,3.3-.9,3,.5,4,1.4c1,.9,1.6,2.2,1.8,3.9h-2.1c-.2-1.2-.6-2.2-1.2-2.7-.6-.6-1.4-.8-2.5-.8s-2.4.5-3.1,1.5c-.7,1-1.1,2.4-1.1,4.2v1.5c0,1.7.4,3,1.1,4.1.7,1,1.7,1.5,3,1.5s2-.3,2.6-.8c.6-.5,1-1.4,1.2-2.7h2.1Z"/>
        <path class="cls-3" d="M635.8,66.3h-6.6l-1.5,4.1h-2.1l6-15.6h1.8l6,15.6h-2.1l-1.5-4.1ZM629.8,64.7h5.3l-2.7-7.3-2.7,7.3Z"/>
      </g>
    </g>
  </g>
</svg>