<?xml version="1.0" encoding="UTF-8"?>
<svg id="Camada_2" xmlns="http://www.w3.org/2000/svg" viewBox="0 0 713.8 76.7">
  <defs>
    <style>
      .cls-1 {
        fill: #fc0;
      }

      .cls-2 {
        fill: #048d3e;
      }

      .cls-3 {
        fill: #666;
      }
    </style>
  </defs>
  <g id="Camada_1-2" data-name="Camada_1">
    <g>
      <path class="cls-2" d="M0,75.67V1.03h22.05c6.6,0,12.45,1.47,17.56,4.41,5.11,2.94,9.07,7.11,11.87,12.51,2.8,5.4,4.2,11.59,4.2,18.56v3.74c0,7.08-1.41,13.3-4.23,18.66-2.82,5.37-6.84,9.5-12.05,12.41-5.21,2.91-11.19,4.36-17.92,4.36H0ZM12.97,11.48v53.83h8.46c6.8,0,12.02-2.13,15.66-6.38,3.64-4.26,5.49-10.36,5.56-18.33v-4.15c0-8.1-1.76-14.29-5.28-18.56-3.52-4.27-8.63-6.41-15.33-6.41h-9.07Z"/>
      <path class="cls-2" d="M77.25,75.67h-12.92V1.03h12.92v74.65Z"/>
      <path class="cls-2" d="M115.58,46.96h-14.46v28.71h-12.97V1.03h26.25c8.61,0,15.26,1.93,19.94,5.8,4.68,3.87,7.02,9.46,7.02,16.78,0,5-1.21,9.18-3.61,12.55-2.41,3.37-5.77,5.96-10.07,7.77l16.77,31.09v.67h-13.89l-14.97-28.71ZM101.12,36.5h13.33c4.37,0,7.79-1.1,10.25-3.31,2.46-2.21,3.69-5.22,3.69-9.05s-1.14-7.09-3.41-9.28c-2.27-2.19-5.67-3.31-10.18-3.38h-13.69v25.02Z"/>
      <path class="cls-2" d="M179.19,1.03h12.92v52.35c0,7.14-2.23,12.82-6.69,17.02-4.46,4.2-10.35,6.31-17.66,6.31-7.79,0-13.81-1.96-18.05-5.9-4.24-3.93-6.36-9.4-6.36-16.41h12.92c0,3.96.98,6.95,2.95,8.95,1.97,2,4.81,3,8.54,3,3.49,0,6.26-1.15,8.33-3.46,2.07-2.31,3.1-5.49,3.1-9.56V1.03Z"/>
      <path class="cls-2" d="M256.49,1.03v49.89c0,7.93-2.54,14.21-7.61,18.84-5.08,4.63-11.83,6.95-20.28,6.95s-15.33-2.28-20.35-6.84c-5.02-4.56-7.54-10.89-7.54-19V1.03h12.92v49.94c0,4.99,1.26,8.8,3.79,11.43,2.53,2.63,6.25,3.95,11.18,3.95,9.98,0,14.97-5.26,14.97-15.79V1.03h12.92Z"/>
      <path class="cls-2" d="M304.31,56.45c0-3.28-1.15-5.81-3.46-7.59-2.31-1.78-6.47-3.57-12.48-5.38-6.02-1.81-10.8-3.83-14.36-6.05-6.8-4.27-10.2-9.84-10.2-16.71,0-6.02,2.45-10.97,7.36-14.87,4.9-3.9,11.27-5.84,19.1-5.84,5.19,0,9.83.96,13.89,2.87,4.07,1.91,7.26,4.64,9.59,8.18,2.32,3.54,3.49,7.46,3.49,11.77h-12.92c0-3.9-1.22-6.95-3.67-9.15-2.44-2.2-5.94-3.31-10.48-3.31-4.24,0-7.53.91-9.87,2.72-2.34,1.81-3.51,4.34-3.51,7.59,0,2.73,1.26,5.02,3.79,6.84,2.53,1.83,6.7,3.61,12.51,5.33,5.81,1.73,10.48,3.69,14,5.9,3.52,2.2,6.1,4.73,7.74,7.59,1.64,2.85,2.46,6.2,2.46,10.02,0,6.22-2.38,11.17-7.15,14.84-4.77,3.67-11.24,5.51-19.41,5.51-5.4,0-10.37-1-14.89-3-4.53-2-8.05-4.76-10.56-8.28-2.51-3.52-3.77-7.62-3.77-12.3h12.97c0,4.24,1.4,7.52,4.2,9.84,2.8,2.33,6.82,3.49,12.05,3.49,4.51,0,7.9-.91,10.18-2.74,2.27-1.83,3.41-4.25,3.41-7.25Z"/>
      <path class="cls-2" d="M336.59,47.99v27.69h-12.97V1.03h28.56c8.34,0,14.96,2.17,19.87,6.52,4.9,4.35,7.36,10.09,7.36,17.25s-2.4,13.02-7.2,17.09c-4.8,4.07-11.53,6.11-20.17,6.11h-15.43ZM336.59,37.53h15.59c4.62,0,8.13-1.08,10.56-3.26,2.43-2.17,3.64-5.31,3.64-9.41s-1.23-7.25-3.69-9.66c-2.46-2.41-5.84-3.65-10.15-3.72h-15.95v26.04Z"/>
    </g>
    <rect class="cls-1" x="392.98" y=".95" width="5.88" height="75.37"/>
    <path class="cls-3" d="M417.02,17.45V1.81h4.42c1.36,0,2.56.3,3.61.9s1.85,1.46,2.42,2.57c.57,1.11.86,2.38.87,3.82v1c0,1.48-.29,2.77-.85,3.88-.57,1.11-1.38,1.96-2.44,2.56-1.06.59-2.29.9-3.69.91h-4.33ZM419.08,3.49v12.27h2.17c1.59,0,2.83-.49,3.71-1.48.88-.99,1.33-2.4,1.33-4.23v-.91c0-1.78-.42-3.16-1.25-4.14-.83-.99-2.02-1.49-3.55-1.5h-2.41Z"/>
    <path class="cls-3" d="M433.66,17.45h-2.06V1.81h2.06v15.64Z"/>
    <path class="cls-3" d="M443.17,11.12h-3.67v6.33h-2.07V1.81h5.18c1.76,0,3.12.4,4.07,1.2.95.8,1.42,1.97,1.42,3.5,0,.97-.26,1.82-.79,2.55-.53.72-1.26,1.26-2.2,1.62l3.67,6.64v.13h-2.21l-3.39-6.33ZM439.5,9.43h3.17c1.02,0,1.84-.27,2.44-.8.61-.53.91-1.24.91-2.13,0-.97-.29-1.71-.87-2.23-.58-.52-1.41-.78-2.5-.79h-3.16v5.94Z"/>
    <path class="cls-3" d="M459.82,10.22h-6.78v5.54h7.87v1.69h-9.94V1.81h9.83v1.69h-7.77v5.04h6.78v1.69Z"/>
    <path class="cls-3" d="M474.5,3.49h-5.03v13.95h-2.05V3.49h-5.02v-1.69h12.1v1.69Z"/>
    <path class="cls-3" d="M488.55,10.13c0,1.53-.26,2.87-.77,4.01-.52,1.14-1.25,2.01-2.19,2.62s-2.05.9-3.31.9-2.32-.3-3.28-.91c-.95-.6-1.69-1.47-2.22-2.59-.53-1.12-.8-2.42-.81-3.89v-1.13c0-1.5.26-2.83.78-3.99.52-1.15,1.26-2.04,2.22-2.65.96-.61,2.05-.92,3.28-.92s2.36.3,3.31.91c.96.61,1.69,1.48,2.21,2.63s.77,2.49.77,4.01v.99ZM486.5,9.12c0-1.85-.37-3.28-1.12-4.27-.75-.99-1.79-1.49-3.13-1.49s-2.33.5-3.08,1.49c-.75.99-1.13,2.37-1.16,4.13v1.15c0,1.8.38,3.21,1.13,4.24.75,1.03,1.79,1.54,3.12,1.54s2.36-.48,3.09-1.46c.73-.97,1.11-2.36,1.13-4.17v-1.16Z"/>
    <path class="cls-3" d="M497.38,11.12h-3.67v6.33h-2.07V1.81h5.18c1.76,0,3.12.4,4.07,1.2.95.8,1.42,1.97,1.42,3.5,0,.97-.26,1.82-.79,2.55-.53.72-1.26,1.26-2.2,1.62l3.67,6.64v.13h-2.21l-3.39-6.33ZM493.71,9.43h3.17c1.02,0,1.84-.27,2.44-.8.61-.53.91-1.24.91-2.13,0-.97-.29-1.71-.87-2.23-.58-.52-1.41-.78-2.5-.79h-3.16v5.94Z"/>
    <path class="cls-3" d="M507.41,17.45h-2.06V1.81h2.06v15.64Z"/>
    <path class="cls-3" d="M519.81,13.35h-6.55l-1.47,4.09h-2.13l5.97-15.64h1.8l5.98,15.64h-2.12l-1.49-4.09ZM513.88,11.67h5.32l-2.66-7.32-2.65,7.32Z"/>
    <path class="cls-3" d="M530.98,17.45V1.81h4.42c1.36,0,2.56.3,3.61.9s1.85,1.46,2.42,2.57c.57,1.11.86,2.38.87,3.82v1c0,1.48-.29,2.77-.85,3.88-.57,1.11-1.38,1.96-2.44,2.56-1.06.59-2.29.9-3.69.91h-4.33ZM533.04,3.49v12.27h2.17c1.59,0,2.83-.49,3.71-1.48.88-.99,1.33-2.4,1.33-4.23v-.91c0-1.78-.42-3.16-1.25-4.14-.83-.99-2.02-1.49-3.55-1.5h-2.41Z"/>
    <path class="cls-3" d="M557.43,10.13c0,1.53-.26,2.87-.77,4.01-.52,1.14-1.25,2.01-2.19,2.62s-2.05.9-3.31.9-2.32-.3-3.28-.91c-.95-.6-1.69-1.47-2.22-2.59-.53-1.12-.8-2.42-.81-3.89v-1.13c0-1.5.26-2.83.78-3.99.52-1.15,1.26-2.04,2.22-2.65.96-.61,2.05-.92,3.28-.92s2.36.3,3.31.91c.96.61,1.69,1.48,2.21,2.63s.77,2.49.77,4.01v.99ZM555.38,9.12c0-1.85-.37-3.28-1.12-4.27-.75-.99-1.79-1.49-3.13-1.49s-2.33.5-3.08,1.49c-.75.99-1.13,2.37-1.16,4.13v1.15c0,1.8.38,3.21,1.13,4.24.75,1.03,1.79,1.54,3.12,1.54s2.36-.48,3.09-1.46c.73-.97,1.11-2.36,1.13-4.17v-1.16Z"/>
    <path class="cls-3" d="M429.05,36.53c0,1.53-.26,2.87-.77,4.01-.52,1.14-1.25,2.01-2.19,2.62s-2.05.9-3.31.9-2.32-.3-3.28-.91c-.95-.6-1.69-1.47-2.22-2.59-.53-1.12-.8-2.42-.81-3.89v-1.13c0-1.5.26-2.83.78-3.99.52-1.15,1.26-2.04,2.22-2.65.96-.61,2.05-.92,3.28-.92s2.36.3,3.31.91c.96.61,1.69,1.48,2.21,2.63s.77,2.49.77,4.01v.99ZM427,35.52c0-1.85-.37-3.28-1.12-4.27-.75-.99-1.79-1.49-3.13-1.49s-2.33.5-3.08,1.49c-.75.99-1.13,2.37-1.16,4.13v1.15c0,1.8.38,3.21,1.13,4.24.75,1.03,1.79,1.54,3.12,1.54s2.36-.48,3.09-1.46c.73-.97,1.11-2.36,1.13-4.17v-1.16Z"/>
    <path class="cls-3" d="M432.15,43.85v-15.64h5.11c1.7,0,2.97.35,3.83,1.05.86.7,1.28,1.74,1.28,3.12,0,.73-.21,1.38-.62,1.94-.42.56-.98,1-1.7,1.31.84.24,1.51.69,2,1.35.49.66.74,1.45.74,2.37,0,1.4-.46,2.51-1.36,3.31-.91.8-2.2,1.2-3.86,1.2h-5.42ZM434.21,34.88h3.12c.9,0,1.62-.23,2.17-.68.54-.45.81-1.07.81-1.84,0-.86-.25-1.49-.75-1.88s-1.26-.59-2.29-.59h-3.05v4.98ZM434.21,36.53v5.63h3.41c.96,0,1.72-.25,2.27-.75.56-.5.83-1.18.83-2.06,0-1.88-1.02-2.83-3.07-2.83h-3.44Z"/>
    <path class="cls-3" d="M450.45,36.87c-1.77-.51-3.06-1.13-3.86-1.87-.81-.74-1.21-1.66-1.21-2.74,0-1.23.49-2.25,1.48-3.06.99-.81,2.27-1.21,3.84-1.21,1.07,0,2.03.21,2.87.62.84.42,1.49.99,1.96,1.72.46.73.69,1.53.69,2.4h-2.07c0-.95-.3-1.69-.9-2.24s-1.45-.81-2.55-.81c-1.02,0-1.81.22-2.38.67-.57.45-.85,1.07-.85,1.87,0,.64.27,1.18.81,1.62.54.44,1.46.85,2.76,1.21,1.3.37,2.32.77,3.05,1.21.73.44,1.28.95,1.63,1.54.35.59.53,1.28.53,2.07,0,1.27-.49,2.28-1.48,3.05s-2.31,1.14-3.96,1.14c-1.07,0-2.08-.21-3.01-.62s-1.65-.98-2.15-1.69c-.51-.72-.76-1.53-.76-2.44h2.07c0,.95.35,1.69,1.05,2.24.7.55,1.63.82,2.8.82,1.09,0,1.92-.22,2.5-.67.58-.44.87-1.05.87-1.82s-.27-1.36-.81-1.78-1.51-.83-2.92-1.24Z"/>
    <path class="cls-3" d="M467.74,36.62h-6.78v5.54h7.87v1.69h-9.94v-15.64h9.83v1.69h-7.77v5.04h6.78v1.69Z"/>
    <path class="cls-3" d="M477.14,37.52h-3.67v6.33h-2.07v-15.64h5.18c1.76,0,3.12.4,4.07,1.2.95.8,1.42,1.97,1.42,3.5,0,.97-.26,1.82-.79,2.55-.53.72-1.26,1.26-2.2,1.62l3.67,6.64v.13h-2.21l-3.39-6.33ZM473.46,35.83h3.17c1.02,0,1.84-.27,2.44-.8.61-.53.91-1.24.91-2.13,0-.97-.29-1.71-.87-2.23-.58-.52-1.41-.78-2.5-.79h-3.16v5.94Z"/>
    <path class="cls-3" d="M489.92,41.11l4.47-12.9h2.26l-5.8,15.64h-1.83l-5.79-15.64h2.25l4.45,12.9Z"/>
    <path class="cls-3" d="M506.57,39.75h-6.55l-1.47,4.09h-2.13l5.97-15.64h1.8l5.98,15.64h-2.12l-1.49-4.09ZM500.64,38.07h5.32l-2.66-7.32-2.65,7.32Z"/>
    <path class="cls-3" d="M521.71,29.89h-5.03v13.95h-2.05v-13.95h-5.02v-1.69h12.1v1.69Z"/>
    <path class="cls-3" d="M536.06,36.53c0,1.53-.26,2.87-.77,4.01-.52,1.14-1.25,2.01-2.19,2.62s-2.05.9-3.31.9-2.32-.3-3.28-.91c-.95-.6-1.69-1.47-2.22-2.59-.53-1.12-.8-2.42-.81-3.89v-1.13c0-1.5.26-2.83.78-3.99.52-1.15,1.26-2.04,2.22-2.65.96-.61,2.05-.92,3.28-.92s2.36.3,3.31.91c.96.61,1.69,1.48,2.21,2.63s.77,2.49.77,4.01v.99ZM534,35.52c0-1.85-.37-3.28-1.12-4.27-.75-.99-1.79-1.49-3.13-1.49s-2.33.5-3.08,1.49c-.75.99-1.13,2.37-1.16,4.13v1.15c0,1.8.38,3.21,1.13,4.24.75,1.03,1.79,1.54,3.12,1.54s2.36-.48,3.09-1.46c.73-.97,1.11-2.36,1.13-4.17v-1.16ZM530.77,23.99h2.41l-2.88,3.16h-1.6s2.07-3.16,2.07-3.16Z"/>
    <path class="cls-3" d="M544.89,37.52h-3.67v6.33h-2.07v-15.64h5.18c1.76,0,3.12.4,4.07,1.2.95.8,1.42,1.97,1.42,3.5,0,.97-.26,1.82-.79,2.55-.53.72-1.26,1.26-2.2,1.62l3.67,6.64v.13h-2.21l-3.39-6.33ZM541.21,35.83h3.17c1.02,0,1.84-.27,2.44-.8.61-.53.91-1.24.91-2.13,0-.97-.29-1.71-.87-2.23-.58-.52-1.41-.78-2.5-.79h-3.16v5.94Z"/>
    <path class="cls-3" d="M554.91,43.85h-2.06v-15.64h2.06v15.64Z"/>
    <path class="cls-3" d="M570.71,36.53c0,1.53-.26,2.87-.77,4.01-.52,1.14-1.25,2.01-2.19,2.62s-2.05.9-3.31.9-2.32-.3-3.28-.91c-.95-.6-1.69-1.47-2.22-2.59-.53-1.12-.8-2.42-.81-3.89v-1.13c0-1.5.26-2.83.78-3.99.52-1.15,1.26-2.04,2.22-2.65.96-.61,2.05-.92,3.28-.92s2.36.3,3.31.91c.96.61,1.69,1.48,2.21,2.63s.77,2.49.77,4.01v.99ZM568.66,35.52c0-1.85-.37-3.28-1.12-4.27-.75-.99-1.79-1.49-3.13-1.49s-2.33.5-3.08,1.49c-.75.99-1.13,2.37-1.16,4.13v1.15c0,1.8.38,3.21,1.13,4.24.75,1.03,1.79,1.54,3.12,1.54s2.36-.48,3.09-1.46c.73-.97,1.11-2.36,1.13-4.17v-1.16Z"/>
    <path class="cls-3" d="M579.8,43.85v-15.64h4.42c1.36,0,2.56.3,3.61.9s1.85,1.46,2.42,2.57c.57,1.11.86,2.38.87,3.82v1c0,1.48-.29,2.77-.85,3.88-.57,1.11-1.38,1.96-2.44,2.56-1.06.59-2.29.9-3.69.91h-4.33ZM581.87,29.89v12.27h2.17c1.59,0,2.83-.49,3.71-1.48.88-.99,1.33-2.4,1.33-4.23v-.91c0-1.78-.42-3.16-1.25-4.14-.83-.99-2.02-1.49-3.55-1.5h-2.41Z"/>
    <path class="cls-3" d="M603.07,36.62h-6.78v5.54h7.87v1.69h-9.94v-15.64h9.83v1.69h-7.77v5.04h6.78v1.69Z"/>
    <path class="cls-3" d="M619.73,28.21h2.07v11.08c0,1.5-.45,2.67-1.35,3.51-.9.85-2.1,1.27-3.59,1.27s-2.76-.4-3.63-1.19-1.3-1.91-1.3-3.34h2.06c0,.9.25,1.59.74,2.09.49.5,1.2.75,2.13.75.85,0,1.54-.27,2.07-.81.53-.54.79-1.29.8-2.26v-11.11Z"/>
    <path class="cls-3" d="M635.33,28.21v10.63c0,1.48-.47,2.68-1.39,3.62-.92.94-2.17,1.46-3.74,1.58l-.55.02c-1.71,0-3.08-.46-4.09-1.39s-1.53-2.19-1.55-3.81v-10.66h2.04v10.59c0,1.13.31,2.01.93,2.64.62.63,1.51.94,2.66.94s2.06-.31,2.68-.93c.62-.62.93-1.5.93-2.63v-10.6h2.07Z"/>
    <path class="cls-3" d="M643.19,36.87c-1.77-.51-3.06-1.13-3.86-1.87-.81-.74-1.21-1.66-1.21-2.74,0-1.23.49-2.25,1.48-3.06.99-.81,2.27-1.21,3.84-1.21,1.07,0,2.03.21,2.87.62.84.42,1.49.99,1.96,1.72.46.73.69,1.53.69,2.4h-2.07c0-.95-.3-1.69-.9-2.24s-1.45-.81-2.55-.81c-1.02,0-1.81.22-2.38.67-.57.45-.85,1.07-.85,1.87,0,.64.27,1.18.81,1.62.54.44,1.46.85,2.76,1.21,1.3.37,2.32.77,3.05,1.21.73.44,1.28.95,1.63,1.54.35.59.53,1.28.53,2.07,0,1.27-.49,2.28-1.48,3.05s-2.31,1.14-3.96,1.14c-1.07,0-2.08-.21-3.01-.62s-1.65-.98-2.15-1.69c-.51-.72-.76-1.53-.76-2.44h2.07c0,.95.35,1.69,1.05,2.24.7.55,1.63.82,2.8.82,1.09,0,1.92-.22,2.5-.67.58-.44.87-1.05.87-1.82s-.27-1.36-.81-1.78-1.51-.83-2.92-1.24Z"/>
    <path class="cls-3" d="M662.44,29.89h-5.03v13.95h-2.05v-13.95h-5.02v-1.69h12.1v1.69Z"/>
    <path class="cls-3" d="M666.98,43.85h-2.06v-15.64h2.06v15.64Z"/>
    <path class="cls-3" d="M682.25,38.88c-.19,1.65-.8,2.93-1.83,3.83-1.03.9-2.39,1.35-4.1,1.35-1.85,0-3.33-.66-4.44-1.99-1.11-1.32-1.67-3.1-1.67-5.32v-1.5c0-1.45.26-2.73.78-3.83.52-1.1,1.26-1.95,2.21-2.54s2.06-.89,3.31-.89c1.66,0,2.99.46,4,1.39,1,.93,1.59,2.21,1.75,3.85h-2.07c-.18-1.25-.57-2.15-1.17-2.72-.6-.56-1.43-.84-2.51-.84-1.32,0-2.35.49-3.1,1.46-.75.97-1.12,2.36-1.12,4.16v1.52c0,1.7.35,3.05,1.06,4.05s1.7,1.5,2.98,1.5c1.15,0,2.03-.26,2.64-.78.61-.52,1.02-1.42,1.22-2.71h2.07ZM677,43.94l-.13.56c1.1.19,1.64.81,1.64,1.86,0,.69-.29,1.24-.86,1.65-.57.4-1.37.61-2.4.61l-.08-1.15c.57,0,1-.09,1.32-.28.31-.19.47-.45.47-.78,0-.32-.11-.55-.34-.7s-.69-.26-1.4-.32l.34-1.44h1.43Z"/>
    <path class="cls-3" d="M693.7,39.75h-6.55l-1.47,4.09h-2.13l5.97-15.64h1.8l5.98,15.64h-2.12l-1.49-4.09ZM687.77,38.07h5.32l-2.66-7.32-2.65,7.32Z"/>
    <path class="cls-3" d="M712.71,36.62h-6.78v5.54h7.87v1.69h-9.94v-15.64h9.83v1.69h-7.77v5.04h6.78v1.69Z"/>
    <path class="cls-3" d="M421.63,63.27c-1.77-.51-3.06-1.13-3.86-1.88-.81-.74-1.21-1.66-1.21-2.74,0-1.23.49-2.25,1.48-3.06.99-.81,2.27-1.21,3.84-1.21,1.07,0,2.03.21,2.87.62.84.42,1.49.99,1.96,1.72.46.73.69,1.53.69,2.4h-2.07c0-.95-.3-1.69-.9-2.24-.6-.54-1.45-.81-2.55-.81-1.02,0-1.81.22-2.38.67-.57.45-.85,1.07-.85,1.87,0,.64.27,1.18.81,1.62.54.44,1.46.84,2.76,1.21,1.3.37,2.32.77,3.05,1.21.73.44,1.28.96,1.63,1.54.35.59.53,1.28.53,2.07,0,1.27-.49,2.28-1.48,3.04s-2.31,1.14-3.96,1.14c-1.07,0-2.08-.21-3.01-.62-.93-.41-1.65-.98-2.15-1.69-.51-.72-.76-1.53-.76-2.44h2.07c0,.95.35,1.69,1.05,2.24.7.55,1.63.82,2.8.82,1.09,0,1.92-.22,2.5-.67s.87-1.05.87-1.82-.27-1.36-.81-1.78-1.51-.83-2.92-1.24Z"/>
    <path class="cls-3" d="M438.92,63.02h-6.78v5.54h7.87v1.69h-9.94v-15.64h9.83v1.69h-7.77v5.04h6.78v1.69Z"/>
    <path class="cls-3" d="M454.13,68.19c-.53.76-1.27,1.33-2.22,1.7-.95.38-2.05.56-3.31.56s-2.41-.3-3.39-.9c-.99-.6-1.75-1.45-2.29-2.55-.54-1.1-.82-2.38-.83-3.83v-1.36c0-2.36.55-4.18,1.65-5.48,1.1-1.3,2.64-1.94,4.64-1.94,1.63,0,2.95.42,3.94,1.25,1,.83,1.6,2.02,1.83,3.55h-2.06c-.39-2.08-1.62-3.12-3.7-3.12-1.38,0-2.43.49-3.14,1.46-.71.97-1.07,2.38-1.08,4.22v1.28c0,1.76.4,3.15,1.2,4.19s1.89,1.55,3.25,1.55c.77,0,1.45-.09,2.03-.26.58-.17,1.06-.46,1.44-.87v-3.5h-3.62v-1.69h5.67v5.74Z"/>
    <path class="cls-3" d="M468.57,54.61v10.63c0,1.48-.47,2.68-1.39,3.62-.92.94-2.17,1.46-3.74,1.58l-.55.02c-1.71,0-3.08-.46-4.09-1.39s-1.53-2.2-1.55-3.81v-10.66h2.04v10.59c0,1.13.31,2.01.93,2.64.62.63,1.51.94,2.66.94s2.06-.31,2.68-.93c.62-.62.93-1.5.93-2.63v-10.6h2.07Z"/>
    <path class="cls-3" d="M477.57,63.92h-3.67v6.33h-2.07v-15.64h5.18c1.76,0,3.12.4,4.07,1.2.95.8,1.42,1.97,1.42,3.5,0,.97-.26,1.82-.79,2.55-.53.72-1.26,1.26-2.2,1.62l3.67,6.64v.13h-2.21l-3.39-6.33ZM473.89,62.23h3.17c1.02,0,1.84-.27,2.44-.8.61-.53.91-1.24.91-2.13,0-.97-.29-1.71-.87-2.23-.58-.52-1.41-.78-2.5-.79h-3.16v5.94Z"/>
    <path class="cls-3" d="M494.01,66.15h-6.55l-1.47,4.09h-2.13l5.97-15.64h1.8l5.98,15.64h-2.12l-1.49-4.09ZM488.08,64.47h5.32l-2.66-7.32-2.65,7.32Z"/>
    <path class="cls-3" d="M511.75,70.25h-2.07l-7.87-12.05v12.05h-2.07v-15.64h2.07l7.9,12.11v-12.11h2.05v15.64Z"/>
    <path class="cls-3" d="M526.92,65.28c-.19,1.65-.8,2.93-1.83,3.83-1.03.9-2.39,1.35-4.1,1.35-1.85,0-3.33-.66-4.44-1.99-1.11-1.33-1.67-3.1-1.67-5.32v-1.5c0-1.45.26-2.73.78-3.83.52-1.1,1.26-1.95,2.21-2.54s2.06-.89,3.31-.89c1.66,0,2.99.46,4,1.39,1,.93,1.59,2.21,1.75,3.85h-2.07c-.18-1.25-.57-2.16-1.17-2.72-.6-.56-1.43-.84-2.51-.84-1.32,0-2.35.49-3.1,1.46-.75.97-1.12,2.36-1.12,4.16v1.52c0,1.7.35,3.05,1.06,4.05.71,1,1.7,1.5,2.98,1.5,1.15,0,2.03-.26,2.64-.78.61-.52,1.02-1.42,1.22-2.71h2.07ZM521.66,70.34l-.13.56c1.1.19,1.64.81,1.64,1.86,0,.69-.29,1.24-.86,1.65s-1.37.61-2.4.61l-.08-1.15c.57,0,1-.09,1.32-.28.31-.19.47-.45.47-.78,0-.32-.11-.55-.34-.7s-.69-.26-1.4-.32l.34-1.44h1.43Z"/>
    <path class="cls-3" d="M538.37,66.15h-6.55l-1.47,4.09h-2.13l5.97-15.64h1.8l5.98,15.64h-2.12l-1.49-4.09ZM532.44,64.47h5.32l-2.66-7.32-2.65,7.32Z"/>
    <path class="cls-3" d="M551.59,64.12v6.12h-2.06v-15.64h5.77c1.71,0,3.05.44,4.02,1.31.97.87,1.46,2.03,1.46,3.47,0,1.52-.47,2.69-1.42,3.51-.95.82-2.31,1.23-4.08,1.23h-3.68ZM551.59,62.44h3.71c1.1,0,1.95-.26,2.54-.78s.88-1.27.88-2.25c0-.93-.29-1.68-.88-2.24s-1.39-.85-2.42-.87h-3.82v6.14Z"/>
    <path class="cls-3" d="M574.42,54.61v10.63c0,1.48-.47,2.68-1.39,3.62-.92.94-2.17,1.46-3.74,1.58l-.55.02c-1.71,0-3.08-.46-4.09-1.39s-1.53-2.2-1.55-3.81v-10.66h2.04v10.59c0,1.13.31,2.01.93,2.64.62.63,1.51.94,2.66.94s2.06-.31,2.68-.93c.62-.62.93-1.5.93-2.63v-10.6h2.07ZM569.73,50.42h2.41l-2.88,3.16h-1.6s2.07-3.16,2.07-3.16Z"/>
    <path class="cls-3" d="M577.67,70.25v-15.64h5.11c1.7,0,2.97.35,3.83,1.05.86.7,1.28,1.74,1.28,3.12,0,.73-.21,1.38-.62,1.94-.42.56-.98,1-1.7,1.31.84.24,1.51.69,2,1.35.49.66.74,1.45.74,2.37,0,1.4-.46,2.51-1.36,3.31s-2.2,1.2-3.86,1.2h-5.42ZM579.73,61.28h3.12c.9,0,1.62-.23,2.17-.68.54-.45.81-1.07.81-1.84,0-.86-.25-1.49-.75-1.88-.5-.39-1.26-.59-2.29-.59h-3.05v4.98ZM579.73,62.93v5.63h3.41c.96,0,1.72-.25,2.27-.75.56-.5.83-1.18.83-2.06,0-1.88-1.02-2.83-3.07-2.83h-3.44Z"/>
    <path class="cls-3" d="M593.44,68.56h7.41v1.69h-9.49v-15.64h2.07v13.95Z"/>
    <path class="cls-3" d="M605.42,70.25h-2.06v-15.64h2.06v15.64Z"/>
    <path class="cls-3" d="M620.69,65.28c-.19,1.65-.8,2.93-1.83,3.83-1.03.9-2.39,1.35-4.1,1.35-1.85,0-3.33-.66-4.44-1.99-1.11-1.33-1.67-3.1-1.67-5.32v-1.5c0-1.45.26-2.73.78-3.83.52-1.1,1.26-1.95,2.21-2.54s2.06-.89,3.31-.89c1.66,0,2.99.46,4,1.39,1,.93,1.59,2.21,1.75,3.85h-2.07c-.18-1.25-.57-2.16-1.17-2.72-.6-.56-1.43-.84-2.51-.84-1.32,0-2.35.49-3.1,1.46-.75.97-1.12,2.36-1.12,4.16v1.52c0,1.7.35,3.05,1.06,4.05.71,1,1.7,1.5,2.98,1.5,1.15,0,2.03-.26,2.64-.78.61-.52,1.02-1.42,1.22-2.71h2.07Z"/>
    <path class="cls-3" d="M632.15,66.15h-6.55l-1.47,4.09h-2.13l5.97-15.64h1.8l5.98,15.64h-2.12l-1.49-4.09ZM626.22,64.47h5.32l-2.66-7.32-2.65,7.32Z"/>
  </g>
</svg>