<?xml version="1.0" encoding="UTF-8"?>
<svg id="Camada_2" xmlns="http://www.w3.org/2000/svg" viewBox="0 0 718.33 89.88">
  <defs>
    <style>
      .cls-1 {
        fill: #fc0;
      }

      .cls-2 {
        fill: #048d3e;
      }

      .cls-3 {
        fill: #666;
      }
    </style>
  </defs>
  <g id="Camada_2-2" data-name="Camada_2">
    <g>
      <path class="cls-2" d="M50.05,66.17c0-3.84-1.35-6.79-4.05-8.87-2.7-2.08-7.56-4.18-14.6-6.29-7.03-2.12-12.63-4.48-16.78-7.07-7.95-5-11.93-11.51-11.93-19.54,0-7.03,2.87-12.83,8.6-17.38C17.03,2.45,24.48.18,33.63.18c6.07,0,11.49,1.12,16.25,3.36,4.76,2.24,8.49,5.42,11.21,9.56,2.72,4.14,4.08,8.72,4.08,13.76h-15.11c0-4.56-1.43-8.12-4.29-10.7-2.86-2.58-6.94-3.87-12.26-3.87-4.96,0-8.8,1.06-11.54,3.18-2.74,2.12-4.11,5.08-4.11,8.87,0,3.2,1.48,5.87,4.44,8,2.96,2.14,7.83,4.22,14.63,6.23,6.79,2.02,12.25,4.32,16.36,6.89,4.12,2.58,7.13,5.54,9.05,8.87,1.92,3.34,2.88,7.24,2.88,11.72,0,7.27-2.79,13.06-8.36,17.35-5.57,4.3-13.14,6.44-22.69,6.44-6.31,0-12.12-1.17-17.41-3.51-5.3-2.34-9.41-5.56-12.35-9.68-2.94-4.12-4.41-8.91-4.41-14.39h15.17c0,4.96,1.64,8.79,4.92,11.51,3.28,2.72,7.97,4.08,14.09,4.08,5.28,0,9.24-1.07,11.9-3.21,2.66-2.14,3.99-4.96,3.99-8.48Z"/>
      <path class="cls-2" d="M123.65,49.69h-35.85v26.86h41.9v12.11h-57.07V1.37h56.65v12.23h-41.48v24.1h35.85v11.99Z"/>
      <path class="cls-2" d="M171.88,1.37h15.11v61.2c0,8.35-2.61,14.99-7.82,19.9-5.22,4.92-12.1,7.37-20.65,7.37-9.11,0-16.15-2.3-21.1-6.89-4.96-4.6-7.43-10.99-7.43-19.18h15.11c0,4.64,1.15,8.12,3.45,10.46,2.3,2.34,5.62,3.51,9.98,3.51,4.08,0,7.32-1.35,9.74-4.05,2.42-2.7,3.63-6.42,3.63-11.18V1.37Z"/>
      <path class="cls-2" d="M262.26,1.37v58.33c0,9.27-2.97,16.62-8.9,22.03-5.93,5.42-13.84,8.12-23.71,8.12s-17.92-2.67-23.8-8-8.81-12.74-8.81-22.21V1.37h15.11v58.39c0,5.84,1.48,10.29,4.44,13.37,2.96,3.08,7.31,4.62,13.07,4.62,11.67,0,17.5-6.15,17.5-18.46V1.37h15.11Z"/>
      <path class="cls-2" d="M318.17,66.17c0-3.84-1.35-6.79-4.05-8.87-2.7-2.08-7.56-4.18-14.6-6.29-7.03-2.12-12.63-4.48-16.78-7.07-7.95-5-11.93-11.51-11.93-19.54,0-7.03,2.87-12.83,8.6-17.38,5.73-4.56,13.18-6.83,22.33-6.83,6.07,0,11.49,1.12,16.25,3.36,4.75,2.24,8.49,5.42,11.21,9.56,2.72,4.14,4.08,8.72,4.08,13.76h-15.11c0-4.56-1.43-8.12-4.29-10.7-2.86-2.58-6.94-3.87-12.26-3.87-4.96,0-8.8,1.06-11.54,3.18-2.74,2.12-4.11,5.08-4.11,8.87,0,3.2,1.48,5.87,4.44,8,2.96,2.14,7.83,4.22,14.63,6.23,6.79,2.02,12.25,4.32,16.37,6.89,4.12,2.58,7.13,5.54,9.05,8.87,1.92,3.34,2.88,7.24,2.88,11.72,0,7.27-2.79,13.06-8.36,17.35-5.58,4.3-13.14,6.44-22.69,6.44-6.31,0-12.12-1.17-17.41-3.51-5.3-2.34-9.41-5.56-12.35-9.68-2.94-4.12-4.41-8.91-4.41-14.39h15.17c0,4.96,1.64,8.79,4.92,11.51,3.28,2.72,7.97,4.08,14.09,4.08,5.28,0,9.24-1.07,11.9-3.21,2.66-2.14,3.99-4.96,3.99-8.48Z"/>
      <path class="cls-2" d="M355.92,56.28v32.37h-15.17V1.37h33.39c9.75,0,17.49,2.54,23.23,7.62,5.73,5.08,8.6,11.8,8.6,20.16s-2.81,15.22-8.42,19.98c-5.62,4.76-13.48,7.14-23.59,7.14h-18.04ZM355.92,44.06h18.22c5.39,0,9.51-1.27,12.35-3.81,2.84-2.54,4.26-6.2,4.26-11s-1.44-8.48-4.32-11.3c-2.88-2.82-6.83-4.27-11.87-4.35h-18.64v30.45Z"/>
    </g>
    <rect class="cls-1" x="427.64" width="6.88" height="89.88"/>
    <g>
      <path class="cls-3" d="M463.95,14.3c-2.07-.59-3.57-1.33-4.52-2.19-.94-.87-1.41-1.94-1.41-3.21,0-1.44.58-2.63,1.73-3.57,1.15-.94,2.65-1.41,4.49-1.41,1.26,0,2.38.24,3.36.73.98.49,1.75,1.16,2.29,2.01s.81,1.79.81,2.8h-2.42c0-1.11-.35-1.98-1.05-2.62s-1.7-.95-2.98-.95c-1.19,0-2.12.26-2.78.79s-1,1.25-1,2.18c0,.75.32,1.38.95,1.89.63.52,1.71.99,3.23,1.42s2.71.9,3.57,1.41c.86.52,1.5,1.12,1.91,1.8.42.69.62,1.49.62,2.42,0,1.48-.58,2.67-1.73,3.56s-2.7,1.34-4.63,1.34c-1.26,0-2.43-.24-3.52-.72-1.09-.48-1.93-1.14-2.52-1.98-.59-.84-.89-1.79-.89-2.85h2.42c0,1.11.41,1.98,1.22,2.62s1.91.96,3.27.96c1.27,0,2.25-.26,2.93-.78.68-.52,1.02-1.23,1.02-2.12s-.31-1.59-.94-2.08-1.77-.97-3.42-1.45Z"/>
      <path class="cls-3" d="M484.16,14h-7.92v6.48h9.21v1.97h-11.62V4.17h11.49v1.97h-9.08v5.89h7.92v1.97Z"/>
      <path class="cls-3" d="M501.89,16.65c-.23,1.93-.94,3.43-2.14,4.48-1.2,1.05-2.8,1.58-4.79,1.58-2.16,0-3.89-.77-5.19-2.32-1.3-1.55-1.95-3.62-1.95-6.22v-1.76c0-1.7.3-3.19.91-4.48.61-1.29,1.47-2.28,2.58-2.97,1.11-.69,2.4-1.04,3.87-1.04,1.94,0,3.5.54,4.67,1.63,1.17,1.08,1.86,2.59,2.05,4.5h-2.42c-.21-1.46-.66-2.52-1.36-3.17-.7-.66-1.68-.98-2.93-.98-1.54,0-2.75.57-3.62,1.71-.88,1.14-1.31,2.76-1.31,4.86v1.77c0,1.99.41,3.57,1.24,4.74s1.99,1.76,3.48,1.76c1.34,0,2.37-.3,3.08-.91.72-.61,1.19-1.66,1.43-3.17h2.42Z"/>
      <path class="cls-3" d="M511.89,15.06h-4.29v7.4h-2.42V4.17h6.05c2.06,0,3.64.47,4.75,1.41,1.11.94,1.66,2.3,1.66,4.09,0,1.14-.31,2.13-.92,2.98-.62.85-1.47,1.48-2.57,1.9l4.3,7.76v.15h-2.59l-3.97-7.4ZM507.59,13.09h3.71c1.2,0,2.15-.31,2.86-.93.71-.62,1.06-1.45,1.06-2.49,0-1.13-.34-2-1.01-2.6s-1.65-.91-2.92-.92h-3.69v6.95Z"/>
      <path class="cls-3" d="M531.35,14h-7.92v6.48h9.21v1.97h-11.62V4.17h11.49v1.97h-9.08v5.89h7.92v1.97Z"/>
      <path class="cls-3" d="M548.52,6.14h-5.88v16.31h-2.4V6.14h-5.87v-1.97h14.14v1.97Z"/>
      <path class="cls-3" d="M560.34,17.67h-7.66l-1.72,4.79h-2.49l6.98-18.29h2.11l7,18.29h-2.47l-1.75-4.79ZM553.41,15.7h6.22l-3.12-8.55-3.1,8.55Z"/>
      <path class="cls-3" d="M573.73,15.06h-4.29v7.4h-2.42V4.17h6.05c2.06,0,3.64.47,4.75,1.41,1.11.94,1.66,2.3,1.66,4.09,0,1.14-.31,2.13-.92,2.98-.62.85-1.47,1.48-2.57,1.9l4.3,7.76v.15h-2.59l-3.97-7.4ZM569.44,13.09h3.71c1.2,0,2.15-.31,2.86-.93.71-.62,1.06-1.45,1.06-2.49,0-1.13-.34-2-1.01-2.6s-1.65-.91-2.92-.92h-3.69v6.95Z"/>
      <path class="cls-3" d="M585.45,22.46h-2.41V4.17h2.41v18.29Z"/>
      <path class="cls-3" d="M599.96,17.67h-7.66l-1.72,4.79h-2.49l6.98-18.29h2.11l7,18.29h-2.47l-1.75-4.79ZM593.02,15.7h6.22l-3.12-8.55-3.1,8.55Z"/>
      <path class="cls-3" d="M613.01,22.46V4.17h5.16c1.59,0,3,.35,4.22,1.06,1.22.7,2.17,1.7,2.83,3s1,2.79,1.01,4.47v1.17c0,1.73-.33,3.24-1,4.53s-1.62,2.29-2.85,2.99c-1.23.69-2.67,1.05-4.31,1.07h-5.06ZM615.42,6.14v14.34h2.54c1.86,0,3.3-.58,4.34-1.73,1.03-1.16,1.55-2.8,1.55-4.94v-1.07c0-2.08-.49-3.69-1.46-4.85s-2.36-1.74-4.15-1.75h-2.81Z"/>
      <path class="cls-3" d="M640.21,14h-7.92v6.48h9.21v1.97h-11.62V4.17h11.49v1.97h-9.08v5.89h7.92v1.97Z"/>
      <path class="cls-3" d="M468.9,44.87h-7.92v6.48h9.21v1.97h-11.62v-18.29h11.49v1.97h-9.08v5.89h7.92v1.97Z"/>
      <path class="cls-3" d="M478.57,45.17c-2.07-.59-3.57-1.33-4.52-2.19-.94-.87-1.41-1.94-1.41-3.21,0-1.44.58-2.63,1.73-3.57,1.15-.94,2.65-1.41,4.49-1.41,1.26,0,2.38.24,3.36.73.98.49,1.75,1.16,2.29,2.01s.81,1.79.81,2.8h-2.42c0-1.11-.35-1.98-1.05-2.62s-1.7-.95-2.98-.95c-1.19,0-2.12.26-2.78.79s-1,1.25-1,2.18c0,.75.32,1.38.95,1.89.63.52,1.71.99,3.23,1.42s2.71.9,3.57,1.41c.86.52,1.5,1.12,1.91,1.8.42.69.62,1.49.62,2.42,0,1.48-.58,2.67-1.73,3.56-1.16.89-2.7,1.34-4.63,1.34-1.26,0-2.43-.24-3.52-.72-1.09-.48-1.93-1.14-2.52-1.98-.59-.84-.89-1.79-.89-2.85h2.42c0,1.11.41,1.98,1.22,2.62s1.91.96,3.27.96c1.27,0,2.25-.26,2.93-.78.68-.52,1.02-1.23,1.02-2.12s-.31-1.59-.94-2.08-1.77-.97-3.42-1.45Z"/>
      <path class="cls-3" d="M501.07,37.01h-5.88v16.31h-2.4v-16.31h-5.87v-1.97h14.14v1.97Z"/>
      <path class="cls-3" d="M512.89,48.54h-7.66l-1.72,4.79h-2.49l6.98-18.29h2.11l7,18.29h-2.47l-1.75-4.79ZM505.96,46.56h6.22l-3.12-8.55-3.1,8.55Z"/>
      <path class="cls-3" d="M519.57,53.32v-18.29h5.16c1.59,0,3,.35,4.22,1.06,1.22.7,2.17,1.7,2.83,3s1,2.79,1.01,4.47v1.17c0,1.73-.33,3.24-1,4.53s-1.62,2.29-2.85,2.99c-1.23.7-2.67,1.05-4.31,1.07h-5.06ZM521.99,37.01v14.34h2.54c1.86,0,3.3-.58,4.34-1.73,1.03-1.16,1.55-2.8,1.55-4.94v-1.07c0-2.08-.49-3.69-1.46-4.85s-2.36-1.74-4.15-1.75h-2.81Z"/>
      <path class="cls-3" d="M550.51,44.77c0,1.79-.3,3.36-.9,4.69-.6,1.34-1.46,2.36-2.56,3.06-1.1.7-2.39,1.05-3.87,1.05s-2.72-.35-3.83-1.06c-1.11-.71-1.98-1.72-2.59-3.03-.62-1.31-.93-2.83-.95-4.55v-1.32c0-1.76.31-3.31.92-4.66.61-1.35,1.48-2.38,2.59-3.1,1.12-.72,2.4-1.07,3.84-1.07s2.76.35,3.88,1.06c1.12.71,1.98,1.73,2.58,3.08.6,1.34.9,2.91.9,4.69v1.16ZM548.11,43.59c0-2.17-.44-3.83-1.31-4.99s-2.09-1.74-3.66-1.74-2.72.58-3.6,1.74-1.33,2.77-1.35,4.83v1.34c0,2.1.44,3.75,1.33,4.95.88,1.2,2.1,1.8,3.65,1.8s2.76-.57,3.62-1.7c.85-1.13,1.29-2.76,1.32-4.88v-1.36Z"/>
      <path class="cls-3" d="M560.5,53.32v-18.29h5.16c1.59,0,3,.35,4.22,1.06,1.22.7,2.17,1.7,2.83,3s1,2.79,1.01,4.47v1.17c0,1.73-.33,3.24-1,4.53s-1.62,2.29-2.85,2.99c-1.23.7-2.67,1.05-4.31,1.07h-5.06ZM562.91,37.01v14.34h2.54c1.86,0,3.3-.58,4.34-1.73,1.03-1.16,1.55-2.8,1.55-4.94v-1.07c0-2.08-.49-3.69-1.46-4.85s-2.36-1.74-4.15-1.75h-2.81Z"/>
      <path class="cls-3" d="M587.7,44.87h-7.92v6.48h9.21v1.97h-11.62v-18.29h11.49v1.97h-9.08v5.89h7.92v1.97Z"/>
      <path class="cls-3" d="M606.01,35.04h2.42v12.95c0,1.75-.53,3.12-1.58,4.11-1.05.99-2.45,1.48-4.2,1.48s-3.23-.46-4.25-1.39c-1.01-.93-1.52-2.23-1.52-3.91h2.41c0,1.05.29,1.86.86,2.45s1.4.88,2.49.88c1,0,1.8-.31,2.42-.94s.93-1.51.94-2.64v-12.99Z"/>
      <path class="cls-3" d="M625.42,35.04v12.43c0,1.73-.55,3.14-1.63,4.23-1.08,1.1-2.54,1.71-4.38,1.85l-.64.02c-2,0-3.6-.54-4.79-1.62-1.19-1.08-1.79-2.57-1.81-4.46v-12.46h2.39v12.38c0,1.32.36,2.35,1.09,3.08.73.73,1.77,1.1,3.12,1.1s2.41-.36,3.13-1.09c.72-.73,1.09-1.75,1.09-3.08v-12.4h2.42Z"/>
      <path class="cls-3" d="M634.61,45.17c-2.07-.59-3.57-1.33-4.52-2.19-.94-.87-1.41-1.94-1.41-3.21,0-1.44.58-2.63,1.73-3.57,1.15-.94,2.65-1.41,4.49-1.41,1.26,0,2.38.24,3.36.73.98.49,1.75,1.16,2.29,2.01s.81,1.79.81,2.8h-2.42c0-1.11-.35-1.98-1.05-2.62s-1.7-.95-2.98-.95c-1.19,0-2.12.26-2.78.79s-1,1.25-1,2.18c0,.75.32,1.38.95,1.89.63.52,1.71.99,3.23,1.42s2.71.9,3.57,1.41c.86.52,1.5,1.12,1.91,1.8.42.69.62,1.49.62,2.42,0,1.48-.58,2.67-1.73,3.56-1.16.89-2.7,1.34-4.63,1.34-1.26,0-2.43-.24-3.52-.72-1.09-.48-1.93-1.14-2.52-1.98-.59-.84-.89-1.79-.89-2.85h2.42c0,1.11.41,1.98,1.22,2.62s1.91.96,3.27.96c1.27,0,2.25-.26,2.93-.78.68-.52,1.02-1.23,1.02-2.12s-.31-1.59-.94-2.08-1.77-.97-3.42-1.45Z"/>
      <path class="cls-3" d="M657.12,37.01h-5.88v16.31h-2.4v-16.31h-5.87v-1.97h14.14v1.97Z"/>
      <path class="cls-3" d="M662.42,53.32h-2.41v-18.29h2.41v18.29Z"/>
      <path class="cls-3" d="M680.28,47.52c-.23,1.93-.94,3.43-2.14,4.48s-2.8,1.58-4.79,1.58c-2.16,0-3.89-.77-5.19-2.32-1.3-1.55-1.95-3.62-1.95-6.22v-1.76c0-1.7.3-3.19.91-4.48.61-1.29,1.47-2.28,2.58-2.97,1.11-.69,2.4-1.04,3.87-1.04,1.94,0,3.5.54,4.67,1.63,1.17,1.08,1.86,2.59,2.05,4.5h-2.42c-.21-1.46-.66-2.52-1.36-3.17-.7-.66-1.68-.98-2.93-.98-1.54,0-2.75.57-3.62,1.71-.88,1.14-1.31,2.76-1.31,4.86v1.77c0,1.99.41,3.57,1.24,4.74.83,1.17,1.99,1.76,3.48,1.76,1.34,0,2.37-.3,3.08-.91.72-.61,1.19-1.67,1.43-3.17h2.42ZM674.14,53.44l-.15.65c1.28.23,1.92.95,1.92,2.17,0,.81-.33,1.45-1,1.93-.67.47-1.6.71-2.8.71l-.09-1.34c.66,0,1.17-.11,1.54-.33s.55-.52.55-.92c0-.37-.13-.64-.4-.82-.27-.18-.81-.3-1.63-.38l.4-1.68h1.67Z"/>
      <path class="cls-3" d="M693.67,48.54h-7.66l-1.72,4.79h-2.49l6.98-18.29h2.11l7,18.29h-2.47l-1.75-4.79ZM686.73,46.56h6.22l-3.12-8.55-3.1,8.55Z"/>
      <path class="cls-3" d="M717.05,44.87h-7.92v6.48h9.21v1.97h-11.62v-18.29h11.49v1.97h-9.08v5.89h7.92v1.97Z"/>
      <path class="cls-3" d="M463.95,76.04c-2.07-.59-3.57-1.33-4.52-2.19-.94-.87-1.41-1.94-1.41-3.21,0-1.44.58-2.63,1.73-3.57,1.15-.94,2.65-1.41,4.49-1.41,1.26,0,2.38.24,3.36.73.98.49,1.75,1.16,2.29,2.01.54.85.81,1.79.81,2.8h-2.42c0-1.11-.35-1.98-1.05-2.62-.7-.63-1.7-.95-2.98-.95-1.19,0-2.12.26-2.78.79-.67.52-1,1.25-1,2.18,0,.75.32,1.38.95,1.89.63.52,1.71.99,3.23,1.42,1.52.43,2.71.9,3.57,1.42.86.51,1.5,1.12,1.91,1.8.42.69.62,1.5.62,2.42,0,1.48-.58,2.67-1.73,3.56-1.16.89-2.7,1.34-4.63,1.34-1.26,0-2.43-.24-3.52-.72-1.09-.48-1.93-1.14-2.52-1.98-.59-.84-.89-1.79-.89-2.85h2.42c0,1.1.41,1.98,1.22,2.62s1.91.96,3.27.96c1.27,0,2.25-.26,2.93-.78.68-.52,1.02-1.23,1.02-2.12s-.31-1.59-.94-2.08c-.63-.49-1.77-.97-3.42-1.45Z"/>
      <path class="cls-3" d="M484.16,75.74h-7.92v6.48h9.21v1.97h-11.62v-18.29h11.49v1.97h-9.08v5.89h7.92v1.97Z"/>
      <path class="cls-3" d="M501.94,81.79c-.62.89-1.48,1.55-2.59,1.99s-2.4.66-3.87.66-2.81-.35-3.97-1.05c-1.16-.7-2.05-1.69-2.68-2.98-.63-1.29-.96-2.78-.97-4.48v-1.59c0-2.75.64-4.89,1.93-6.41s3.09-2.27,5.42-2.27c1.91,0,3.45.49,4.61,1.46s1.88,2.36,2.13,4.15h-2.41c-.45-2.43-1.89-3.64-4.32-3.64-1.62,0-2.84.57-3.67,1.7-.83,1.14-1.25,2.78-1.26,4.93v1.5c0,2.05.47,3.69,1.41,4.9.94,1.21,2.21,1.82,3.81,1.82.9,0,1.7-.1,2.37-.3.68-.2,1.24-.54,1.68-1.01v-4.1h-4.23v-1.97h6.63v6.71Z"/>
      <path class="cls-3" d="M518.83,65.9v12.43c0,1.72-.55,3.14-1.63,4.23-1.08,1.1-2.54,1.71-4.38,1.85l-.64.02c-2,0-3.6-.54-4.79-1.62-1.19-1.08-1.79-2.57-1.81-4.46v-12.46h2.39v12.38c0,1.32.36,2.35,1.09,3.08.73.73,1.77,1.1,3.12,1.1s2.41-.36,3.13-1.09c.72-.73,1.09-1.75,1.09-3.08v-12.4h2.42Z"/>
      <path class="cls-3" d="M529.34,76.79h-4.29v7.4h-2.42v-18.29h6.05c2.06,0,3.64.47,4.75,1.41,1.11.94,1.66,2.3,1.66,4.09,0,1.14-.31,2.13-.92,2.98-.62.85-1.47,1.48-2.57,1.9l4.3,7.76v.15h-2.59l-3.97-7.4ZM525.05,74.82h3.71c1.2,0,2.15-.31,2.86-.93.71-.62,1.06-1.45,1.06-2.49,0-1.13-.34-2-1.01-2.6s-1.65-.91-2.92-.92h-3.69v6.95Z"/>
      <path class="cls-3" d="M548.57,79.4h-7.66l-1.72,4.79h-2.49l6.98-18.29h2.11l7,18.29h-2.47l-1.75-4.79ZM541.64,77.43h6.22l-3.12-8.55-3.1,8.55Z"/>
      <path class="cls-3" d="M569.31,84.19h-2.42l-9.21-14.09v14.09h-2.42v-18.29h2.42l9.23,14.16v-14.16h2.4v18.29Z"/>
      <path class="cls-3" d="M587.04,78.39c-.23,1.93-.94,3.43-2.14,4.48s-2.8,1.58-4.79,1.58c-2.16,0-3.89-.77-5.19-2.32-1.3-1.55-1.95-3.62-1.95-6.22v-1.76c0-1.7.3-3.19.91-4.48.61-1.29,1.47-2.28,2.58-2.97,1.11-.69,2.4-1.04,3.87-1.04,1.94,0,3.5.54,4.67,1.63,1.17,1.08,1.86,2.59,2.05,4.5h-2.42c-.21-1.46-.66-2.52-1.36-3.17s-1.68-.98-2.93-.98c-1.54,0-2.75.57-3.62,1.71s-1.31,2.76-1.31,4.86v1.77c0,1.99.41,3.57,1.24,4.74s1.99,1.76,3.48,1.76c1.34,0,2.37-.3,3.08-.91.72-.61,1.19-1.67,1.43-3.17h2.42ZM580.9,84.3l-.15.65c1.28.23,1.92.95,1.92,2.17,0,.81-.33,1.45-1,1.93-.67.47-1.6.71-2.8.71l-.09-1.34c.66,0,1.17-.11,1.54-.33s.55-.52.55-.92c0-.37-.13-.64-.4-.82-.27-.18-.81-.3-1.63-.38l.4-1.68h1.67Z"/>
      <path class="cls-3" d="M600.43,79.4h-7.66l-1.72,4.79h-2.49l6.98-18.29h2.11l7,18.29h-2.47l-1.75-4.79ZM593.5,77.43h6.22l-3.12-8.55-3.1,8.55Z"/>
      <path class="cls-3" d="M615.9,77.03v7.16h-2.41v-18.29h6.74c2,0,3.57.51,4.7,1.53,1.13,1.02,1.7,2.37,1.7,4.06,0,1.78-.55,3.14-1.66,4.1-1.11.96-2.7,1.44-4.77,1.44h-4.31ZM615.9,75.06h4.33c1.29,0,2.28-.3,2.96-.91s1.03-1.49,1.03-2.64-.34-1.96-1.03-2.62-1.63-.99-2.83-1.02h-4.47v7.18Z"/>
      <path class="cls-3" d="M642.58,65.9v12.43c0,1.72-.55,3.14-1.63,4.23-1.08,1.1-2.54,1.71-4.38,1.85l-.64.02c-2,0-3.6-.54-4.79-1.62-1.19-1.08-1.79-2.57-1.81-4.46v-12.46h2.39v12.38c0,1.32.36,2.35,1.09,3.08.73.73,1.77,1.1,3.12,1.1s2.41-.36,3.13-1.09c.72-.73,1.09-1.75,1.09-3.08v-12.4h2.42ZM637.11,61h2.81l-3.37,3.69h-1.87s2.42-3.69,2.42-3.69Z"/>
      <path class="cls-3" d="M646.39,84.19v-18.29h5.98c1.99,0,3.48.41,4.48,1.23,1,.82,1.5,2.03,1.5,3.64,0,.85-.24,1.61-.73,2.27-.49.66-1.15,1.17-1.98,1.53.99.28,1.77.8,2.34,1.58.57.78.86,1.7.86,2.77,0,1.64-.53,2.93-1.59,3.87-1.06.94-2.57,1.41-4.51,1.41h-6.34ZM648.8,73.7h3.64c1.05,0,1.9-.26,2.53-.79s.95-1.25.95-2.15c0-1.01-.29-1.74-.88-2.2s-1.48-.69-2.68-.69h-3.57v5.83ZM648.8,75.64v6.58h3.98c1.12,0,2.01-.29,2.66-.87.65-.58.97-1.38.97-2.41,0-2.2-1.2-3.3-3.59-3.3h-4.02Z"/>
      <path class="cls-3" d="M664.83,82.22h8.67v1.97h-11.09v-18.29h2.42v16.32Z"/>
      <path class="cls-3" d="M678.83,84.19h-2.41v-18.29h2.41v18.29Z"/>
      <path class="cls-3" d="M696.69,78.39c-.23,1.93-.94,3.43-2.14,4.48s-2.8,1.58-4.79,1.58c-2.16,0-3.89-.77-5.19-2.32-1.3-1.55-1.95-3.62-1.95-6.22v-1.76c0-1.7.3-3.19.91-4.48.61-1.29,1.47-2.28,2.58-2.97,1.11-.69,2.4-1.04,3.87-1.04,1.94,0,3.5.54,4.67,1.63,1.17,1.08,1.86,2.59,2.05,4.5h-2.42c-.21-1.46-.66-2.52-1.36-3.17s-1.68-.98-2.93-.98c-1.54,0-2.75.57-3.62,1.71s-1.31,2.76-1.31,4.86v1.77c0,1.99.41,3.57,1.24,4.74s1.99,1.76,3.48,1.76c1.34,0,2.37-.3,3.08-.91.72-.61,1.19-1.67,1.43-3.17h2.42Z"/>
      <path class="cls-3" d="M710.08,79.4h-7.66l-1.72,4.79h-2.49l6.98-18.29h2.11l7,18.29h-2.47l-1.75-4.79ZM703.15,77.43h6.22l-3.12-8.55-3.1,8.55Z"/>
    </g>
  </g>
</svg>